<svg xmlns="http://www.w3.org/2000/svg" viewBox="0 0 171.44 33.23"><defs><style>.cls-1{fill:#231815;}</style></defs><g id="레이어_2" data-name="레이어 2"><g id="레이어_1-2" data-name="레이어 1"><path class="cls-1" d="M62.68,13.2V7.47A.27.27,0,0,1,63,7.2H64.8a.28.28,0,0,1,.28.27V32.33a.28.28,0,0,1-.28.27H63a.27.27,0,0,1-.27-.27V26.79a12.36,12.36,0,0,1-10.9,6.44,13.33,13.33,0,0,1,0-26.65A12.43,12.43,0,0,1,62.68,13.2Zm0,7.06C62.68,14,58.16,9,51.78,9a10.87,10.87,0,0,0-4.85,20.61C54.29,33.24,62.68,27.81,62.68,20.26Z"/><path class="cls-1" d="M110.08,19.88A13.29,13.29,0,0,1,96.73,33.23a12.22,12.22,0,0,1-10.85-6.29v5.3a.36.36,0,0,1-.37.36H83.8a.37.37,0,0,1-.37-.36V.34A.34.34,0,0,1,83.77,0h1.77a.34.34,0,0,1,.34.34V13.06A12.26,12.26,0,0,1,96.73,6.58,13.34,13.34,0,0,1,110.08,19.88ZM107.6,19a10.91,10.91,0,0,0-6.43-9c-7.3-3.23-15.29,2.22-15.29,9.56,0,6.29,4.42,11.24,10.85,11.24A10.87,10.87,0,0,0,107.6,19Z"/><path class="cls-1" d="M125.1,0h2.4V32.6h-2.4Z"/><path class="cls-1" d="M144.84,19.88a13.3,13.3,0,0,1,13.55-13.3c7.32.13,13.05,6.42,13.05,13.74v.81H147.29a10.87,10.87,0,0,0,10.85,9.65,11.37,11.37,0,0,0,9.41-5l1.92,1.39a13.84,13.84,0,0,1-11.33,6.1A13.22,13.22,0,0,1,144.84,19.88Zm24.1-1.2a10.9,10.9,0,0,0-21.63-.23.21.21,0,0,0,.2.23Z"/><path d="M12.07,18.8h0c-4.82-.72-8.84-1.2-8.84-4.88,0-3.42,4.55-5.06,8.63-5.06,3.3,0,7.89.83,9.1,3.35a.22.22,0,0,0,.26.12l2.13-.65a.23.23,0,0,0,.14-.32C21.87,8,16.39,6.58,11.85,6.58c-6,0-11,2.46-11,7.3S5.58,20.32,11.44,21c.2,0-.22,0,0,0,4.82.73,9.6,1.57,9.6,5.24,0,3.42-5.31,4.7-9.38,4.7-3.3,0-7.9-.83-9.11-3.34a.22.22,0,0,0-.26-.12l-2.12.65a.22.22,0,0,0-.15.31c1.62,3.35,7.1,4.79,11.64,4.79,6,0,11.94-2.1,11.94-6.95S17.93,19.49,12.07,18.8Z"/></g></g></svg>